<?xml version="1.0" encoding="UTF-8" standalone="no"?>
<svg
   xmlns:dc="http://purl.org/dc/elements/1.1/"
   xmlns:cc="http://creativecommons.org/ns#"
   xmlns:rdf="http://www.w3.org/1999/02/22-rdf-syntax-ns#"
   xmlns:svg="http://www.w3.org/2000/svg"
   xmlns="http://www.w3.org/2000/svg"
   xmlns:sodipodi="http://sodipodi.sourceforge.net/DTD/sodipodi-0.dtd"
   xmlns:inkscape="http://www.inkscape.org/namespaces/inkscape"
   viewBox="0 0 150 150"
   preserveAspectRatio="xMinYMid meet"
   version="1.1"
   id="svg4551"
   sodipodi:docname="completion-auto-submitted.svg"
   inkscape:version="0.92.3 (2405546, 2018-03-11)"
   width="150"
   height="150">
  <metadata
     id="metadata4557">
    <rdf:RDF>
      <cc:Work
         rdf:about="">
        <dc:format>image/svg+xml</dc:format>
        <dc:type
           rdf:resource="http://purl.org/dc/dcmitype/StillImage" />
        <dc:title></dc:title>
      </cc:Work>
    </rdf:RDF>
  </metadata>
  <defs
     id="defs4555" />
  <sodipodi:namedview
     pagecolor="#ffffff"
     bordercolor="#666666"
     borderopacity="1"
     objecttolerance="10"
     gridtolerance="10"
     guidetolerance="10"
     inkscape:pageopacity="0"
     inkscape:pageshadow="2"
     inkscape:window-width="1920"
     inkscape:window-height="1137"
     id="namedview4553"
     showgrid="false"
     showguides="true"
     inkscape:guide-bbox="true"
     inkscape:zoom="7.5625"
     inkscape:cx="79.788311"
     inkscape:cy="73.514686"
     inkscape:window-x="1912"
     inkscape:window-y="-8"
     inkscape:window-maximized="1"
     inkscape:current-layer="svg4551">
    <sodipodi:guide
       position="8.7107438,8.5619835"
       orientation="1,0"
       id="guide4561"
       inkscape:locked="false" />
    <sodipodi:guide
       position="9.5702479,11.421488"
       orientation="1,0"
       id="guide4563"
       inkscape:locked="false" />
    <sodipodi:guide
       position="4.7107438,8.5289256"
       orientation="0,1"
       id="guide4565"
       inkscape:locked="false" />
    <sodipodi:guide
       position="10.826446,9.9338843"
       orientation="1,0"
       id="guide4567"
       inkscape:locked="false" />
    <sodipodi:guide
       position="4.2975207,9.338843"
       orientation="0,1"
       id="guide4571"
       inkscape:locked="false" />
    <sodipodi:guide
       position="4.2975207,9.338843"
       orientation="1,0"
       id="guide4573"
       inkscape:locked="false" />
  </sodipodi:namedview>
  <path
     d="M 134.46281,103.70648 V 30.595039 c 0,-8.316225 -6.74163,-15.057851 -15.05785,-15.057851 H 96.818182 L 60.834977,98.54028 Z m -15.05785,-5.35111 v 7.52893 c 0,8.31622 -6.74163,15.05785 -15.05785,15.05785 H 96.818182 V 136 h 22.586778 c 8.31622,0 15.05785,-6.74163 15.05785,-15.05785 V 98.35537 Z M 89.289256,136 V 120.94215 H 59.173554 V 136 Z M 126.62277,66.995211 14,98.35537 v 22.58678 C 14,129.25837 20.741634,136 29.057852,136 H 119.40496 Z M 14,117.41876 95.801852,97.5628 106.89823,15.537188 H 29.057852 C 20.741634,15.537188 14,22.278814 14,30.595039 v 22.586777 z"
     id="path4549-8"
     inkscape:connector-curvature="0"
     style="fill:#b19000;fill-opacity:1;stroke-width:7.52892542"
     sodipodi:nodetypes="cssccccssccsscccccccccsscccccsscc" />
  <path
     style="fill:#ffffff;fill-opacity:1;stroke:none;stroke-width:10.91316986;stroke-linecap:round;stroke-linejoin:round;stroke-miterlimit:4;stroke-dasharray:none;stroke-opacity:1"
     d="M 37.686715,65.729819 H 91.029704 L 73.874302,52.251419 C 68.250864,45.910131 77.944097,35.386966 84.368097,41.134926 l 30.607893,24.8175 c 3.27351,2.654227 6.22314,4.790948 6.20654,9.832826 -0.0165,5.041876 -2.86018,7.413616 -6.30224,10.174696 L 84.368097,110.43559 C 77.48808,116.14854 67.209239,104.49571 73.874302,98.42118 L 91.029704,85.840596 H 37.521996 c -9.323621,0 -9.706417,-20.110777 0.164719,-20.110777 z"
     id="path4559"
     inkscape:connector-curvature="0"
     sodipodi:nodetypes="ccccszsccccc" />
</svg>
