<?xml version="1.0" encoding="UTF-8" standalone="no"?>
<svg
   xmlns:dc="http://purl.org/dc/elements/1.1/"
   xmlns:cc="http://creativecommons.org/ns#"
   xmlns:rdf="http://www.w3.org/1999/02/22-rdf-syntax-ns#"
   xmlns:svg="http://www.w3.org/2000/svg"
   xmlns="http://www.w3.org/2000/svg"
   xmlns:sodipodi="http://sodipodi.sourceforge.net/DTD/sodipodi-0.dtd"
   xmlns:inkscape="http://www.inkscape.org/namespaces/inkscape"
   viewBox="0 0 24 24"
   preserveAspectRatio="xMinYMid meet"
   version="1.1"
   id="svg4551"
   sodipodi:docname="completion-auto-submitted.svg"
   inkscape:version="0.92.3 (2405546, 2018-03-11)"
   width="24"
   height="24">
  <metadata
     id="metadata4557">
    <rdf:RDF>
      <cc:Work
         rdf:about="">
        <dc:format>image/svg+xml</dc:format>
        <dc:type
           rdf:resource="http://purl.org/dc/dcmitype/StillImage" />
        <dc:title></dc:title>
      </cc:Work>
    </rdf:RDF>
  </metadata>
  <defs
     id="defs4555" />
  <sodipodi:namedview
     pagecolor="#ffffff"
     bordercolor="#666666"
     borderopacity="1"
     objecttolerance="10"
     gridtolerance="10"
     guidetolerance="10"
     inkscape:pageopacity="0"
     inkscape:pageshadow="2"
     inkscape:window-width="1920"
     inkscape:window-height="1137"
     id="namedview4553"
     showgrid="false"
     showguides="true"
     inkscape:guide-bbox="true"
     inkscape:zoom="3.78125"
     inkscape:cx="-64.223825"
     inkscape:cy="-62.768865"
     inkscape:window-x="1912"
     inkscape:window-y="-8"
     inkscape:window-maximized="1"
     inkscape:current-layer="svg4551">
    <sodipodi:guide
       position="8.7107438,8.5619835"
       orientation="1,0"
       id="guide4561"
       inkscape:locked="false" />
    <sodipodi:guide
       position="9.5702479,11.421488"
       orientation="1,0"
       id="guide4563"
       inkscape:locked="false" />
    <sodipodi:guide
       position="4.7107438,8.5289256"
       orientation="0,1"
       id="guide4565"
       inkscape:locked="false" />
    <sodipodi:guide
       position="10.826446,9.9338843"
       orientation="1,0"
       id="guide4567"
       inkscape:locked="false" />
    <sodipodi:guide
       position="4.2975207,9.338843"
       orientation="0,1"
       id="guide4571"
       inkscape:locked="false" />
    <sodipodi:guide
       position="4.2975207,9.338843"
       orientation="1,0"
       id="guide4573"
       inkscape:locked="false" />
  </sodipodi:namedview>
  <path
     d="M 20,15.710743 V 5.9999995 c 0,-1.10457 -0.895431,-2 -2,-2 H 15 L 10.220672,15.024563 Z M 18,15 v 1 c 0,1.104569 -0.895431,2 -2,2 h -1 v 2 h 3 c 1.104569,0 2,-0.895431 2,-2 v -3 z m -4,5 v -2 h -4 v 2 z M 18.958678,10.834711 4,15 v 3 c 0,1.104569 0.895431,2 2,2 H 18 Z M 4,17.532024 14.86501,14.89473 16.338843,3.9999995 H 6 c -1.104569,0 -2,0.89543 -2,2 V 9 Z"
     id="path4549-8"
     inkscape:connector-curvature="0"
     style="fill:#ffcc00;fill-opacity:1"
     sodipodi:nodetypes="cssccccssccsscccccccccsscccccsscc" />
  <path
     style="fill:#000000;fill-opacity:1;stroke:none;stroke-width:1.28115153;stroke-linecap:round;stroke-linejoin:round;stroke-miterlimit:4;stroke-dasharray:none;stroke-opacity:1"
     d="M 7.8189865,10.857723 H 14.527248 L 12.205374,8.643072 c -0.681631,-0.720989 0.49331,-1.917453 1.271979,-1.263926 l 3.710058,3.50388 c 0.359983,0.339978 0.754323,0.544721 0.752311,1.117973 -0.002,0.573251 -0.385479,0.802293 -0.76391,1.156839 l -3.698459,3.465014 c -0.833944,0.649549 -2.079868,-0.675354 -1.271979,-1.366015 l 2.321874,-2.112563 H 7.7990205 c -1.1301392,0 -1.176539,-2.286551 0.019966,-2.286551 z"
     id="path4559"
     inkscape:connector-curvature="0"
     sodipodi:nodetypes="ccccszsccccc" />
</svg>
